<?xml version="1.0" encoding="UTF-8"?>
<svg version="1.1" xmlns="http://www.w3.org/2000/svg" width="1280" height="640">
<path d="M0 0 C1.77576501 1.99028695 3.42869392 4.0334229 5.05859375 6.14453125 C5.620625 6.84578125 6.18265625 7.54703125 6.76171875 8.26953125 C10.57286617 13.07638385 14.17182808 18.02985532 17.765625 23 C24.14690842 31.75116381 30.6827147 40.38988589 37.30859375 48.95703125 C41.04777302 53.79878902 44.68247304 58.70322794 48.26171875 63.6640625 C49.83920217 65.84167548 51.43902209 67.99816343 53.05859375 70.14453125 C54.05947829 71.47720072 55.05938148 72.81060748 56.05859375 74.14453125 C56.76757812 75.09070313 57.4765625 76.036875 58.20703125 77.01171875 C59.30917969 78.50058594 59.30917969 78.50058594 60.43359375 80.01953125 C61.12195313 80.94507813 61.8103125 81.870625 62.51953125 82.82421875 C64.05859375 85.14453125 64.05859375 85.14453125 64.05859375 87.14453125 C64.71859375 87.14453125 65.37859375 87.14453125 66.05859375 87.14453125 C67.45571649 89.10050309 68.77787004 91.11044065 70.05859375 93.14453125 C70.80507448 94.2718695 71.55489717 95.39700443 72.30859375 96.51953125 C72.88609375 97.38578125 73.46359375 98.25203125 74.05859375 99.14453125 C77.50420655 97.91395525 78.84349707 96.17873507 80.71875 93.12109375 C83.19681702 89.46540305 86.16998825 86.18351278 89.03515625 82.828125 C90.96002335 80.27526072 91.91084926 78.09237073 93.05859375 75.14453125 C94.39453125 73.6796875 94.39453125 73.6796875 96.05859375 72.14453125 C97.61705257 70.30445619 99.15730468 68.44887667 100.68359375 66.58203125 C101.48023438 65.61136719 102.276875 64.64070313 103.09765625 63.640625 C105.05222858 61.32465862 105.05222858 61.32465862 106.05859375 59.14453125 C106.71859375 59.14453125 107.37859375 59.14453125 108.05859375 59.14453125 C108.38859375 57.49453125 108.71859375 55.84453125 109.05859375 54.14453125 C110.04859375 54.14453125 111.03859375 54.14453125 112.05859375 54.14453125 C112.14109375 53.59023437 112.22359375 53.0359375 112.30859375 52.46484375 C113.30132202 49.39359065 114.99416074 47.48947788 117.05859375 45.01953125 C119.84019083 41.7658362 119.84019083 41.7658362 122.05859375 38.14453125 C122.71859375 38.14453125 123.37859375 38.14453125 124.05859375 38.14453125 C124.32671875 37.40203125 124.59484375 36.65953125 124.87109375 35.89453125 C126.01136126 33.25391176 127.15239681 31.28900281 129.05859375 29.14453125 C129.71859375 29.14453125 130.37859375 29.14453125 131.05859375 29.14453125 C131.414375 28.10232422 131.414375 28.10232422 131.77734375 27.0390625 C133.28964645 23.6225494 135.31097742 20.78696454 137.55859375 17.83203125 C138.16380859 17.00735352 138.16380859 17.00735352 138.78125 16.16601562 C139.82128066 14.78445674 140.93492829 13.45896827 142.05859375 12.14453125 C142.71859375 12.14453125 143.37859375 12.14453125 144.05859375 12.14453125 C144.15269531 11.38914063 144.24679687 10.63375 144.34375 9.85546875 C145.58081916 5.16406986 149.34071485 3.01854948 153.05859375 0.14453125 C153.86296875 -0.48195312 154.66734375 -1.1084375 155.49609375 -1.75390625 C165.63081956 -9.25993755 174.55860349 -10.91432381 187.05859375 -9.85546875 C195.91950391 -7.35153311 203.2330339 -3.33683886 209.24609375 3.70703125 C214.99116601 14.60285796 215.21883309 25.59746176 212.0234375 37.23046875 C209.44606438 45.01476166 205.14276758 50.39784022 199.59375 56.3359375 C196.70146436 59.54017999 194.02577144 62.86812658 191.37109375 66.26953125 C190.90372803 66.86741455 190.4363623 67.46529785 189.95483398 68.08129883 C187.41112327 71.35423979 184.93364388 74.66641351 182.49609375 78.01953125 C181.69171875 79.05078125 180.88734375 80.08203125 180.05859375 81.14453125 C179.39859375 81.14453125 178.73859375 81.14453125 178.05859375 81.14453125 C177.81109375 81.70140625 177.56359375 82.25828125 177.30859375 82.83203125 C175.83127501 85.56507092 174.02811138 87.73734303 172.05859375 90.14453125 C170.50679493 92.28123885 168.95956617 94.42062949 167.42578125 96.5703125 C166.97460938 97.08980469 166.5234375 97.60929687 166.05859375 98.14453125 C165.39859375 98.14453125 164.73859375 98.14453125 164.05859375 98.14453125 C163.67380859 98.99337891 163.67380859 98.99337891 163.28125 99.859375 C161.91811579 102.4070859 160.32224304 104.46769263 158.49609375 106.70703125 C157.43068359 108.01994141 157.43068359 108.01994141 156.34375 109.359375 C154.81101321 111.22747984 153.27714503 113.09465693 151.7421875 114.9609375 C150.98035156 115.88777344 150.21851563 116.81460938 149.43359375 117.76953125 C148.68722656 118.67703125 147.94085937 119.58453125 147.171875 120.51953125 C144.76669192 123.5071154 142.48320307 126.56601682 140.25 129.68359375 C139.05859375 131.14453125 139.05859375 131.14453125 137.05859375 132.14453125 C136.04507711 133.80301302 135.0473858 135.47119086 134.05859375 137.14453125 C131.99609375 139.95703125 131.99609375 139.95703125 130.05859375 142.14453125 C129.39859375 142.14453125 128.73859375 142.14453125 128.05859375 142.14453125 C127.39859375 143.79453125 126.73859375 145.44453125 126.05859375 147.14453125 C125.39859375 147.14453125 124.73859375 147.14453125 124.05859375 147.14453125 C123.11462362 149.91744352 122.66852237 151.29961063 123.05859375 154.14453125 C125.36294881 157.5009988 128.18636456 160.27230206 131.05859375 163.14453125 C135.05859375 167.84453125 135.05859375 167.84453125 135.05859375 170.14453125 C136.04859375 170.47453125 137.03859375 170.80453125 138.05859375 171.14453125 C139.88329387 173.25658572 141.5760758 175.35454654 143.24609375 177.58203125 C143.9412207 178.48018555 143.9412207 178.48018555 144.65039062 179.39648438 C148.05859375 183.87884872 148.05859375 183.87884872 148.05859375 186.14453125 C149.04859375 186.47453125 150.03859375 186.80453125 151.05859375 187.14453125 C152.78515625 189.04296875 152.78515625 189.04296875 154.68359375 191.51953125 C155.38742187 192.42445313 156.09125 193.329375 156.81640625 194.26171875 C157.92628906 195.68871094 157.92628906 195.68871094 159.05859375 197.14453125 C160.55291591 198.98249544 162.05292676 200.8158492 163.55859375 202.64453125 C167.12622679 206.99066841 170.63524435 211.37949426 174.12890625 215.78515625 C176.57756028 218.77905713 179.16705494 221.62880114 181.80859375 224.453125 C183.05859375 226.14453125 183.05859375 226.14453125 183.05859375 229.14453125 C183.65800781 229.38558594 184.25742187 229.62664062 184.875 229.875 C187.50101327 231.4017519 188.42908068 232.87428118 189.99609375 235.45703125 C192.29918193 239.23563553 194.9155329 242.03312713 198.05859375 245.14453125 C212.31800464 261.20474986 212.31800464 261.20474986 216.05859375 271.14453125 C216.41824219 272.06621094 216.77789063 272.98789062 217.1484375 273.9375 C219.95666457 283.83258336 218.84664253 295.08406971 214.05859375 304.14453125 C208.70340003 312.81554355 201.63445597 318.20973393 191.703125 320.74609375 C177.6981245 322.85615291 167.61647914 320.31416955 156.37109375 312.20703125 C154.05859375 310.14453125 154.05859375 310.14453125 151.68359375 306.95703125 C149.30745455 303.81230041 149.30745455 303.81230041 145.68359375 303.70703125 C140.46112972 302.8966489 138.46028892 299.95083334 135.05859375 296.14453125 C133.91954787 294.99946575 132.7795343 293.85534872 131.63500977 292.71575928 C129.79391205 290.88072062 127.95993345 289.03870751 126.1262207 287.19628906 C122.08091837 283.13319634 118.03257119 279.07315195 113.9831543 275.01416016 C112.23552188 273.26146404 110.48878298 271.50787655 108.74291992 269.75341797 C106.22156933 267.21999444 103.69705298 264.68976412 101.171875 262.16015625 C99.99689201 260.97743134 99.99689201 260.97743134 98.798172 259.77081299 C98.0736937 259.04625916 97.34921539 258.32170532 96.6027832 257.57519531 C95.96500443 256.93519592 95.32722565 256.29519653 94.67012024 255.63580322 C93.11237188 254.05506607 93.11237188 254.05506607 91.05859375 253.14453125 C91.05859375 252.48453125 91.05859375 251.82453125 91.05859375 251.14453125 C90.39859375 251.14453125 89.73859375 251.14453125 89.05859375 251.14453125 C89.05859375 250.48453125 89.05859375 249.82453125 89.05859375 249.14453125 C88.39859375 249.14453125 87.73859375 249.14453125 87.05859375 249.14453125 C87.05859375 248.48453125 87.05859375 247.82453125 87.05859375 247.14453125 C86.39859375 247.14453125 85.73859375 247.14453125 85.05859375 247.14453125 C83.47265625 245.5 83.47265625 245.5 81.68359375 243.33203125 C79.33140304 240.48764205 77.03780447 238.31428293 74.05859375 236.14453125 C71.27946606 238.86535869 68.51182956 241.59759722 65.74609375 244.33203125 C64.96041016 245.10095703 64.17472656 245.86988281 63.36523438 246.66210938 C62.60791016 247.41298828 61.85058594 248.16386719 61.0703125 248.9375 C60.02556763 249.96653442 60.02556763 249.96653442 58.9597168 251.01635742 C56.96690525 253.24717009 55.58869159 255.58422008 54.05859375 258.14453125 C53.39859375 258.47453125 52.73859375 258.80453125 52.05859375 259.14453125 C53.04859375 259.47453125 54.03859375 259.80453125 55.05859375 260.14453125 C55.38859375 259.48453125 55.71859375 258.82453125 56.05859375 258.14453125 C57.70859375 258.14453125 59.35859375 258.14453125 61.05859375 258.14453125 C61.05859375 257.48453125 61.05859375 256.82453125 61.05859375 256.14453125 C61.71859375 256.14453125 62.37859375 256.14453125 63.05859375 256.14453125 C63.05859375 255.48453125 63.05859375 254.82453125 63.05859375 254.14453125 C64.93359375 252.01953125 64.93359375 252.01953125 67.05859375 250.14453125 C67.71859375 250.14453125 68.37859375 250.14453125 69.05859375 250.14453125 C69.05859375 249.48453125 69.05859375 248.82453125 69.05859375 248.14453125 C71.02007249 246.75515048 73.02025951 245.41849015 75.05859375 244.14453125 C79.65202619 248.71246967 84.24142353 253.28443394 88.828125 257.85913086 C90.38678315 259.41278088 91.94634027 260.9655296 93.50683594 262.51733398 C95.75826972 264.75654734 98.00637955 266.99905337 100.25390625 269.2421875 C100.94477325 269.92789322 101.63564026 270.61359894 102.34744263 271.32008362 C105.99007821 274.96230248 109.45539182 278.66678312 112.72750854 282.6469574 C114.23444313 284.41721883 114.23444313 284.41721883 117.05859375 286.64453125 C119.41070855 288.60462692 121.13614532 290.32157273 123.05859375 292.64453125 C125.79324203 295.94324537 128.72840006 298.45203423 132.05859375 301.14453125 C134.5357961 303.50377158 136.79561167 305.79993404 138.87109375 308.51953125 C141.33452078 311.47564368 144.057213 313.82213529 146.97265625 316.3203125 C151.18203725 320.00155019 155.11825373 323.90771454 158.62109375 328.26953125 C161.23086413 331.34772195 163.90188164 333.64852633 167.05859375 336.14453125 C166.2215246 342.29275114 160.47188781 346.28501521 156.30859375 350.45703125 C155.40109375 351.40126953 154.49359375 352.34550781 153.55859375 353.31835938 C152.676875 354.20587891 151.79515625 355.09339844 150.88671875 356.0078125 C150.08137695 356.82548096 149.27603516 357.64314941 148.44628906 358.4855957 C146.05859375 360.14453125 146.05859375 360.14453125 143.82350159 360.13397217 C139.76666418 358.68220554 137.40700383 356.01843883 134.43237305 352.97241211 C133.78790726 352.32853043 133.14344147 351.68464874 132.47944641 351.02125549 C130.35428168 348.89330685 128.243631 346.75154727 126.1328125 344.609375 C124.66109646 343.13019772 123.18849406 341.65190184 121.71504211 340.17445374 C117.84118111 336.28532744 113.97948262 332.38433845 110.12017822 328.48077393 C106.17917845 324.49884133 102.22681706 320.52822185 98.27539062 316.55664062 C90.5252838 308.76364704 82.78797627 300.9580766 75.05859375 293.14453125 C70.90079707 295.54197398 67.6336565 298.29127697 64.27734375 301.6953125 C63.74137573 302.23173874 63.20540771 302.76816498 62.65319824 303.32084656 C61.52472025 304.45233369 60.39866158 305.58623832 59.27490234 306.72241211 C57.56916009 308.44635218 55.85561078 310.1622134 54.140625 311.87695312 C53.03989306 312.98260369 51.93961762 314.08870895 50.83984375 315.1953125 C50.33449097 315.70177811 49.82913818 316.20824371 49.30847168 316.73005676 C46.02423389 320.05758554 43.03229702 323.53726765 40.05859375 327.14453125 C38.94584851 328.16114299 37.80437244 329.14846125 36.62109375 330.08203125 C34.18713584 332.09634125 32.12616139 334.14107935 30.12109375 336.58203125 C27.45814084 339.79859806 24.52461821 342.41470352 21.34765625 345.11328125 C16.70637926 349.23182056 12.41278111 353.72703584 8.05859375 358.14453125 C7.05966384 359.1456002 6.06025626 360.14619653 5.05859375 361.14453125 C0.882104 359.05628638 -1.57329123 356.43279799 -4.48046875 352.8984375 C-6.48765509 350.48874053 -8.69783685 348.33468234 -10.94140625 346.14453125 C-12.38025034 344.70837659 -13.81766888 343.27079277 -15.25390625 341.83203125 C-15.95128906 341.13464844 -16.64867187 340.43726563 -17.3671875 339.71875 C-17.88667969 339.19925781 -18.40617188 338.67976563 -18.94140625 338.14453125 C-13.4453003 331.43339669 -7.29380677 325.41732352 -1.12890625 319.33203125 C0.96380648 317.26589265 3.05318665 315.1964656 5.140625 313.125 C6.06077393 312.21645264 6.98092285 311.30790527 7.92895508 310.37182617 C10.08645736 308.33454564 10.08645736 308.33454564 11.05859375 306.14453125 C11.71859375 306.14453125 12.37859375 306.14453125 13.05859375 306.14453125 C13.42984375 305.27828125 13.42984375 305.27828125 13.80859375 304.39453125 C15.24159363 301.81513146 16.84284051 300.08331533 19.05859375 298.14453125 C19.71859375 298.14453125 20.37859375 298.14453125 21.05859375 298.14453125 C21.71859375 296.82453125 22.37859375 295.50453125 23.05859375 294.14453125 C23.71859375 294.14453125 24.37859375 294.14453125 25.05859375 294.14453125 C25.71859375 292.82453125 26.37859375 291.50453125 27.05859375 290.14453125 C27.71859375 290.14453125 28.37859375 290.14453125 29.05859375 290.14453125 C29.42984375 289.27828125 29.42984375 289.27828125 29.80859375 288.39453125 C31.24159363 285.81513146 32.84284051 284.08331533 35.05859375 282.14453125 C35.71859375 282.14453125 36.37859375 282.14453125 37.05859375 282.14453125 C37.32671875 281.54640625 37.59484375 280.94828125 37.87109375 280.33203125 C39.05168136 278.15726461 40.32675887 276.87636613 42.05859375 275.14453125 C42.38859375 274.15453125 42.71859375 273.16453125 43.05859375 272.14453125 C43.71859375 272.14453125 44.37859375 272.14453125 45.05859375 272.14453125 C44.56359375 270.65953125 44.56359375 270.65953125 44.05859375 269.14453125 C42.73859375 269.14453125 41.41859375 269.14453125 40.05859375 269.14453125 C39.39859375 270.46453125 38.73859375 271.78453125 38.05859375 273.14453125 C37.39859375 273.14453125 36.73859375 273.14453125 36.05859375 273.14453125 C36.05859375 273.80453125 36.05859375 274.46453125 36.05859375 275.14453125 C35.39859375 275.14453125 34.73859375 275.14453125 34.05859375 275.14453125 C34.05859375 275.80453125 34.05859375 276.46453125 34.05859375 277.14453125 C32.6184082 278.5612793 32.6184082 278.5612793 30.609375 280.21875 C25.89731371 284.2248845 21.57863536 288.54801053 17.24609375 292.95703125 C15.76277237 294.46586117 14.27719199 295.97247452 12.7890625 297.4765625 C12.14348389 298.13374268 11.49790527 298.79092285 10.83276367 299.46801758 C9.05859375 301.14453125 9.05859375 301.14453125 6.05859375 303.14453125 C5.17171875 303.04140625 4.28484375 302.93828125 3.37109375 302.83203125 C-1.05675736 303.24975305 -2.63703778 305.1542279 -5.796875 308.1328125 C-15.7973956 317.51399302 -24.06301222 321.43583389 -37.7890625 321.296875 C-41.49357839 321.11784635 -44.48596808 320.49960504 -47.94140625 319.14453125 C-48.57304687 318.89960938 -49.2046875 318.6546875 -49.85546875 318.40234375 C-57.83907219 314.91914997 -63.62445199 308.87280866 -67.25 301.00390625 C-70.47525018 292.33035209 -70.21267269 280.3243 -67.1328125 271.60546875 C-64.63914611 266.45461686 -61.54090622 261.59232103 -57.94140625 257.14453125 C-57.28140625 257.14453125 -56.62140625 257.14453125 -55.94140625 257.14453125 C-55.70421875 256.59667969 -55.46703125 256.04882812 -55.22265625 255.484375 C-53.61786857 252.55368043 -51.61695106 250.24401942 -49.44140625 247.70703125 C-45.1477354 242.66815165 -41.08559953 237.49385331 -37.16601562 232.15844727 C-36.13663629 230.78516931 -35.04428956 229.45950751 -33.94140625 228.14453125 C-33.28140625 228.14453125 -32.62140625 228.14453125 -31.94140625 228.14453125 C-31.84859375 227.34015625 -31.84859375 227.34015625 -31.75390625 226.51953125 C-30.54105361 222.97426968 -28.49529699 220.88529205 -25.94140625 218.14453125 C-25.28140625 218.14453125 -24.62140625 218.14453125 -23.94140625 218.14453125 C-23.66296875 217.15453125 -23.66296875 217.15453125 -23.37890625 216.14453125 C-21.61941737 212.47255446 -19.2415698 209.89502093 -16.5 206.9140625 C-14.87083909 205.21638619 -14.87083909 205.21638619 -13.94140625 203.14453125 C-13.28140625 203.14453125 -12.62140625 203.14453125 -11.94140625 203.14453125 C-11.67972656 202.5721875 -11.41804687 201.99984375 -11.1484375 201.41015625 C-9.85191156 198.97654768 -8.37289283 197.03063472 -6.62890625 194.89453125 C-5.57123047 193.59128906 -5.57123047 193.59128906 -4.4921875 192.26171875 C-3.64216632 191.22246053 -2.79188213 190.1834174 -1.94140625 189.14453125 C-0.30196664 187.13669566 1.33637665 185.12797953 2.97338867 183.11816406 C4.08502024 181.75405486 5.19837098 180.39134421 6.3137207 179.03027344 C9.56655455 175.04469387 12.68018135 170.99515667 15.67724609 166.81298828 C17.05859375 165.14453125 17.05859375 165.14453125 20.05859375 163.14453125 C21.25091988 161.0944917 21.25091988 161.0944917 22.05859375 159.14453125 C22.71859375 159.14453125 23.37859375 159.14453125 24.05859375 159.14453125 C25.55680434 155.77355742 26.05859375 153.94011006 26.05859375 150.14453125 C24.54224143 148.0027927 24.54224143 148.0027927 22.55859375 146.01953125 C19.05859375 142.33897569 19.05859375 142.33897569 19.05859375 140.14453125 C18.39859375 140.14453125 17.73859375 140.14453125 17.05859375 140.14453125 C16.03247426 138.49381729 15.03551232 136.82483119 14.05859375 135.14453125 C13.06444155 134.13871744 12.06328851 133.13981435 11.05859375 132.14453125 C6.06091467 126.23642226 1.25241962 120.17699809 -3.43359375 114.01953125 C-4.87017996 112.16405009 -4.87017996 112.16405009 -6.37890625 110.70703125 C-8.44141797 108.64451953 -10.23559314 106.41446928 -12.06640625 104.14453125 C-12.77023437 103.27828125 -13.4740625 102.41203125 -14.19921875 101.51953125 C-15.94140625 99.14453125 -15.94140625 99.14453125 -16.94140625 96.14453125 C-17.60140625 96.14453125 -18.26140625 96.14453125 -18.94140625 96.14453125 C-20.52112044 94.26102587 -21.98794213 92.37233228 -23.44140625 90.39453125 C-29.37692299 82.49284738 -35.6558087 74.92598997 -42.12890625 67.45703125 C-44.92384418 64.21458922 -47.5500562 60.85453805 -50.1484375 57.453125 C-51.32269643 55.94117069 -52.52785176 54.45260089 -53.765625 52.9921875 C-61.97568353 43.14367911 -64.89003213 33.64962273 -64.29296875 21.00390625 C-63.85895292 16.23937688 -63.1989277 13.35857129 -60.94140625 9.14453125 C-60.55082031 8.41105469 -60.16023438 7.67757812 -59.7578125 6.921875 C-55.04913834 -1.06819815 -47.92820631 -6.4813925 -38.94140625 -8.85546875 C-24.47894634 -10.85529837 -11.15259259 -10.65891646 0 0 Z " fill="#070807" transform="translate(551.94140625,142.85546875)"/>
<path d="M0 0 C3.58475117 1.68182843 5.94751473 3.67919783 8.75 6.5 C9.54921875 7.2940625 10.3484375 8.088125 11.171875 8.90625 C13 11 13 11 13 13 C13.89629293 13.40873368 13.89629293 13.40873368 14.81069279 13.8257246 C16.94816381 14.9721967 18.32735173 16.0804573 20.02891541 17.78840637 C20.59935074 18.35609238 21.16978607 18.92377838 21.75750732 19.50866699 C22.67792816 20.43987366 22.67792816 20.43987366 23.61694336 21.38989258 C24.2727388 22.04539597 24.92853424 22.70089935 25.60420227 23.37626648 C27.77085711 25.5443144 29.93033849 27.71936374 32.08984375 29.89453125 C33.59628808 31.40470787 35.10317619 32.91444193 36.61048889 34.42375183 C40.57990328 38.40080292 44.54328047 42.38381811 48.50543213 46.36810303 C52.52802732 50.41109032 56.55622194 54.44848975 60.58398438 58.48632812 C67.09543849 65.01536217 73.60344156 71.5478124 80.10696411 78.08474731 C80.68021927 78.66089279 81.25347443 79.23703827 81.84410095 79.8306427 C82.38119627 80.37287287 82.91829159 80.91510303 83.47166252 81.47376442 C84.89360115 82.89374748 86.3440974 84.28497445 87.79664612 85.67362976 C90 88 90 88 92 92 C86.39 97.61 80.78 103.22 75 109 C75.66 110.65 76.32 112.3 77 114 C71.79696546 113.90871869 69.02493501 113.51967519 65.3125 109.75 C64.20256948 108.50511515 63.09897828 107.25456397 62 106 C60.8617649 104.85453886 59.72237728 103.71020316 58.57765198 102.57122803 C56.73562314 100.73669964 54.90148982 98.89444936 53.06762695 97.05175781 C49.02232462 92.98866509 44.97397744 88.9286207 40.92456055 84.86962891 C39.17692813 83.11693279 37.43018923 81.3633453 35.68432617 79.60888672 C33.16297558 77.07546319 30.63845923 74.54523287 28.11328125 72.015625 C27.32995926 71.22714172 26.54663727 70.43865845 25.73957825 69.62628174 C25.01509995 68.90172791 24.29062164 68.17717407 23.54418945 67.43066406 C22.90641068 66.79066467 22.2686319 66.15066528 21.61152649 65.49127197 C20.05377813 63.91053482 20.05377813 63.91053482 18 63 C18 62.34 18 61.68 18 61 C17.34 61 16.68 61 16 61 C16 60.34 16 59.68 16 59 C15.34 59 14.68 59 14 59 C14 58.34 14 57.68 14 57 C13.34 57 12.68 57 12 57 C10.4140625 55.35546875 10.4140625 55.35546875 8.625 53.1875 C6.27280929 50.3431108 3.97921072 48.16975168 1 46 C-1.77912769 48.72082744 -4.54676419 51.45306597 -7.3125 54.1875 C-8.09818359 54.95642578 -8.88386719 55.72535156 -9.69335938 56.51757812 C-10.45068359 57.26845703 -11.20800781 58.01933594 -11.98828125 58.79296875 C-12.68477783 59.4789917 -13.38127441 60.16501465 -14.09887695 60.87182617 C-16.0916885 63.10263884 -17.46990216 65.43968883 -19 68 C-19.99 68.495 -19.99 68.495 -21 69 C-19.515 69.495 -19.515 69.495 -18 70 C-17.67 69.34 -17.34 68.68 -17 68 C-15.35 68 -13.7 68 -12 68 C-12 67.34 -12 66.68 -12 66 C-11.34 66 -10.68 66 -10 66 C-10 65.34 -10 64.68 -10 64 C-8.125 61.875 -8.125 61.875 -6 60 C-5.34 60 -4.68 60 -4 60 C-4 59.34 -4 58.68 -4 58 C-2.03852126 56.61061923 -0.03833424 55.2739589 2 54 C6.59343244 58.56793842 11.18282978 63.13990269 15.76953125 67.71459961 C17.3281894 69.26824963 18.88774652 70.82099835 20.44824219 72.37280273 C22.69967597 74.61201609 24.9477858 76.85452212 27.1953125 79.09765625 C27.8861795 79.78336197 28.57704651 80.46906769 29.28884888 81.17555237 C32.93148446 84.81777123 36.39679807 88.52225187 39.66891479 92.50242615 C41.17584938 94.27268758 41.17584938 94.27268758 44 96.5 C46.3521148 98.46009567 48.07755157 100.17704148 50 102.5 C52.73464828 105.79871412 55.66980631 108.30750298 59 111 C61.47720235 113.35924033 63.73701792 115.65540279 65.8125 118.375 C68.27592703 121.33111243 70.99861925 123.67760404 73.9140625 126.17578125 C78.1234435 129.85701894 82.05965998 133.76318329 85.5625 138.125 C88.17227038 141.2031907 90.84328789 143.50399508 94 146 C93.16293085 152.14821989 87.41329406 156.14048396 83.25 160.3125 C81.88875 161.72885742 81.88875 161.72885742 80.5 163.17382812 C79.61828125 164.06134766 78.7365625 164.94886719 77.828125 165.86328125 C77.0227832 166.68094971 76.21744141 167.49861816 75.38769531 168.34106445 C73 170 73 170 70.76490784 169.98944092 C66.70807043 168.53767429 64.34841008 165.87390758 61.3737793 162.82788086 C60.72931351 162.18399918 60.08484772 161.54011749 59.42085266 160.87672424 C57.29568793 158.7487756 55.18503725 156.60701602 53.07421875 154.46484375 C51.60250271 152.98566647 50.12990031 151.50737059 48.65644836 150.02992249 C44.78258736 146.14079619 40.92088887 142.2398072 37.06158447 138.33624268 C33.1205847 134.35431008 29.16822331 130.3836906 25.21679688 126.41210938 C17.46669005 118.61911579 9.72938252 110.81354535 2 103 C-2.15779668 105.39744273 -5.42493725 108.14674572 -8.78125 111.55078125 C-9.31721802 112.08720749 -9.85318604 112.62363373 -10.40539551 113.17631531 C-11.5338735 114.30780244 -12.65993217 115.44170707 -13.78369141 116.57788086 C-15.48943366 118.30182093 -17.20298297 120.01768215 -18.91796875 121.73242188 C-20.01870069 122.83807244 -21.11897613 123.9441777 -22.21875 125.05078125 C-22.72410278 125.55724686 -23.22945557 126.06371246 -23.75012207 126.58552551 C-27.03435986 129.91305429 -30.02629673 133.3927364 -33 137 C-34.11274524 138.01661174 -35.25422131 139.00393 -36.4375 139.9375 C-38.87145791 141.95181 -40.93243236 143.9965481 -42.9375 146.4375 C-45.60045291 149.65406681 -48.53397554 152.27017227 -51.7109375 154.96875 C-56.35221449 159.08728931 -60.64581264 163.58250459 -65 168 C-65.99892991 169.00106895 -66.99833749 170.00166528 -68 171 C-72.17648975 168.91175513 -74.63188498 166.28826674 -77.5390625 162.75390625 C-79.54624884 160.34420928 -81.7564306 158.19015109 -84 156 C-85.43884409 154.56384534 -86.87626263 153.12626152 -88.3125 151.6875 C-89.00988281 150.99011719 -89.70726562 150.29273438 -90.42578125 149.57421875 C-90.94527344 149.05472656 -91.46476563 148.53523437 -92 148 C-86.50389405 141.28886544 -80.35240052 135.27279227 -74.1875 129.1875 C-72.09478727 127.1213614 -70.0054071 125.05193435 -67.91796875 122.98046875 C-66.99781982 122.07192139 -66.0776709 121.16337402 -65.12963867 120.22729492 C-62.97213639 118.19001439 -62.97213639 118.19001439 -62 116 C-61.34 116 -60.68 116 -60 116 C-59.7525 115.4225 -59.505 114.845 -59.25 114.25 C-57.81700012 111.67060021 -56.21575324 109.93878408 -54 108 C-53.34 108 -52.68 108 -52 108 C-51.34 106.68 -50.68 105.36 -50 104 C-49.34 104 -48.68 104 -48 104 C-47.34 102.68 -46.68 101.36 -46 100 C-45.34 100 -44.68 100 -44 100 C-43.7525 99.4225 -43.505 98.845 -43.25 98.25 C-41.81700012 95.67060021 -40.21575324 93.93878408 -38 92 C-37.34 92 -36.68 92 -36 92 C-35.731875 91.401875 -35.46375 90.80375 -35.1875 90.1875 C-34.00691239 88.01273336 -32.73183488 86.73183488 -31 85 C-30.505 83.515 -30.505 83.515 -30 82 C-29.34 82 -28.68 82 -28 82 C-28.33 81.01 -28.66 80.02 -29 79 C-30.32 79 -31.64 79 -33 79 C-33.66 80.32 -34.32 81.64 -35 83 C-35.66 83 -36.32 83 -37 83 C-37 83.66 -37 84.32 -37 85 C-37.66 85 -38.32 85 -39 85 C-39 85.66 -39 86.32 -39 87 C-40.44018555 88.41674805 -40.44018555 88.41674805 -42.44921875 90.07421875 C-47.16128004 94.08035325 -51.47995839 98.40347928 -55.8125 102.8125 C-57.29582138 104.32132992 -58.78140176 105.82794327 -60.26953125 107.33203125 C-60.91510986 107.98921143 -61.56068848 108.6463916 -62.22583008 109.32348633 C-64 111 -64 111 -67 113 C-67.886875 112.896875 -68.77375 112.79375 -69.6875 112.6875 C-74.22597368 113.11565789 -76.0143123 115.33375424 -79.16796875 118.46875 C-81 120 -81 120 -84 120 C-83.36191406 119.39671875 -82.72382812 118.7934375 -82.06640625 118.171875 C-81.24011719 117.37265625 -80.41382813 116.5734375 -79.5625 115.75 C-78.32693359 114.56664062 -78.32693359 114.56664062 -77.06640625 113.359375 C-74.99421885 110.99339922 -74.2319169 110.07218309 -74 107 C-75.34519944 104.96202557 -75.34519944 104.96202557 -77.40234375 103.109375 C-78.12744141 102.40039062 -78.85253906 101.69140625 -79.59960938 100.9609375 C-80.37111328 100.23132813 -81.14261719 99.50171875 -81.9375 98.75 C-82.70513672 98.00492187 -83.47277344 97.25984375 -84.26367188 96.4921875 C-86.16510754 94.64980263 -88.07720048 92.8200352 -90 91 C-89.0919838 89.86800647 -88.17316174 88.74467637 -87.25 87.625 C-86.73953125 86.99851562 -86.2290625 86.37203125 -85.703125 85.7265625 C-84 84 -84 84 -81.921875 83.0234375 C-79.47191123 81.718782 -79.21528423 80.45318594 -78 78 C-76.70996094 76.45599365 -76.70996094 76.45599365 -75.234375 74.97558594 C-74.68040039 74.41530701 -74.12642578 73.85502808 -73.55566406 73.277771 C-72.95979492 72.68595032 -72.36392578 72.09412964 -71.75 71.484375 C-71.13608398 70.86854553 -70.52216797 70.25271606 -69.88964844 69.6182251 C-68.59425517 68.32147354 -67.29634356 67.02723343 -65.99609375 65.73535156 C-64.00024932 63.75024798 -62.01533274 61.75466409 -60.03125 59.7578125 C-58.77147445 58.49935789 -57.51107899 57.24152346 -56.25 55.984375 C-55.65413086 55.3844574 -55.05826172 54.78453979 -54.44433594 54.16644287 C-50.22993247 50 -50.22993247 50 -48 50 C-47.79375 49.46890625 -47.5875 48.9378125 -47.375 48.390625 C-45.42038808 44.99226564 -42.77876283 42.48944072 -40 39.75 C-39.18015625 38.91855469 -39.18015625 38.91855469 -38.34375 38.0703125 C-34.2533867 34 -34.2533867 34 -32 34 C-31.59722336 33.10924774 -31.59722336 33.10924774 -31.18630981 32.20050049 C-29.99288206 29.98679685 -28.79692662 28.55493564 -27.01904297 26.79199219 C-26.41857147 26.19167175 -25.81809998 25.59135132 -25.19943237 24.97283936 C-24.55354156 24.33727112 -23.90765076 23.70170288 -23.2421875 23.046875 C-22.24761032 22.05654266 -22.24761032 22.05654266 -21.23294067 21.04620361 C-19.11828168 18.94272176 -16.99676788 16.84630858 -14.875 14.75 C-13.43834443 13.32337739 -12.00214102 11.89629928 -10.56640625 10.46875 C-7.04949196 6.97386339 -3.52641453 3.48529938 0 0 Z " fill="#037F04" transform="translate(625,333)"/>
<path d="M0 0 C3.58475117 1.68182843 5.94751473 3.67919783 8.75 6.5 C9.54921875 7.2940625 10.3484375 8.088125 11.171875 8.90625 C13 11 13 11 13 13 C13.89629293 13.40873368 13.89629293 13.40873368 14.81069279 13.8257246 C16.94816381 14.9721967 18.32735173 16.0804573 20.02891541 17.78840637 C20.59935074 18.35609238 21.16978607 18.92377838 21.75750732 19.50866699 C22.67792816 20.43987366 22.67792816 20.43987366 23.61694336 21.38989258 C24.2727388 22.04539597 24.92853424 22.70089935 25.60420227 23.37626648 C27.77085711 25.5443144 29.93033849 27.71936374 32.08984375 29.89453125 C33.59628808 31.40470787 35.10317619 32.91444193 36.61048889 34.42375183 C40.57990328 38.40080292 44.54328047 42.38381811 48.50543213 46.36810303 C52.52802732 50.41109032 56.55622194 54.44848975 60.58398438 58.48632812 C67.09543849 65.01536217 73.60344156 71.5478124 80.10696411 78.08474731 C80.68021927 78.66089279 81.25347443 79.23703827 81.84410095 79.8306427 C82.38031004 80.37069757 82.91651913 80.91075245 83.46897697 81.46717262 C84.91525153 82.91515166 86.37698637 84.34764077 87.83961487 85.77909851 C89.81356438 87.80834197 90.94116942 89.40105221 92 92 C89.19469153 94.8546576 86.38292304 97.70277231 83.56494141 100.54492188 C82.60675044 101.51318538 81.65036018 102.48323426 80.69580078 103.45507812 C79.3253618 104.8497097 77.94793633 106.23746521 76.5703125 107.625 C75.74289551 108.46289062 74.91547852 109.30078125 74.06298828 110.1640625 C72 112 72 112 70 112 C67.08281648 109.32591511 64.53643098 106.47075767 62 103.4375 C60.25008636 101.36253879 58.70332688 99.76418291 56.5625 98.0625 C54.24329257 96.19582085 52.54143608 94.38289462 50.625 92.125 C47.83769681 88.85900779 44.91287653 86.08781225 41.61328125 83.3515625 C37.69045222 80.06512462 34.35909838 76.2800574 31 72.4375 C28.19385498 69.25228849 25.39229594 66.56714288 22 64 C18.84198554 61.01268902 15.97667058 57.8372508 13.125 54.5625 C9.67352565 50.63858049 6.05285664 47.29294602 2 44 C-0.78382043 45.27170385 -2.82934578 46.58060283 -4.9866333 48.74612427 C-5.82788254 49.58324951 -5.82788254 49.58324951 -6.68612671 50.43728638 C-7.28889435 51.04724457 -7.89166199 51.65720276 -8.51269531 52.28564453 C-9.15701508 52.92967224 -9.80133484 53.57369995 -10.46517944 54.23724365 C-12.59093698 56.36439307 -14.70952508 58.49853612 -16.828125 60.6328125 C-18.30170781 62.11012593 -19.77573318 63.58699804 -21.25018311 65.06344604 C-25.12780821 68.94870369 -28.99938941 72.83993029 -32.86975098 76.73242188 C-36.82099939 80.70413678 -40.77792261 84.670189 -44.734375 88.63671875 C-52.49515421 96.4189412 -60.24956148 104.20747999 -68 112 C-69.12203297 111.04359074 -70.24331233 110.08629732 -71.36427307 109.12863159 C-71.98876626 108.59563383 -72.61325945 108.06263607 -73.25667667 107.51348686 C-75.23901519 105.79249612 -77.1169148 103.99709481 -78.96484375 102.1328125 C-79.61904297 101.47539062 -80.27324219 100.81796875 -80.94726562 100.140625 C-81.60404297 99.47546875 -82.26082031 98.8103125 -82.9375 98.125 C-83.62134766 97.43664062 -84.30519531 96.74828125 -85.00976562 96.0390625 C-86.67551464 94.36166489 -88.3388622 92.68196209 -90 91 C-89.0919838 89.86800647 -88.17316174 88.74467637 -87.25 87.625 C-86.73953125 86.99851562 -86.2290625 86.37203125 -85.703125 85.7265625 C-84 84 -84 84 -81.921875 83.0234375 C-79.47191123 81.718782 -79.21528423 80.45318594 -78 78 C-76.70996094 76.45599365 -76.70996094 76.45599365 -75.234375 74.97558594 C-74.68040039 74.41530701 -74.12642578 73.85502808 -73.55566406 73.277771 C-72.95979492 72.68595032 -72.36392578 72.09412964 -71.75 71.484375 C-71.13608398 70.86854553 -70.52216797 70.25271606 -69.88964844 69.6182251 C-68.59425517 68.32147354 -67.29634356 67.02723343 -65.99609375 65.73535156 C-64.00024932 63.75024798 -62.01533274 61.75466409 -60.03125 59.7578125 C-58.77147445 58.49935789 -57.51107899 57.24152346 -56.25 55.984375 C-55.65413086 55.3844574 -55.05826172 54.78453979 -54.44433594 54.16644287 C-50.22993247 50 -50.22993247 50 -48 50 C-47.79375 49.46890625 -47.5875 48.9378125 -47.375 48.390625 C-45.42038808 44.99226564 -42.77876283 42.48944072 -40 39.75 C-39.18015625 38.91855469 -39.18015625 38.91855469 -38.34375 38.0703125 C-34.2533867 34 -34.2533867 34 -32 34 C-31.59722336 33.10924774 -31.59722336 33.10924774 -31.18630981 32.20050049 C-29.99288206 29.98679685 -28.79692662 28.55493564 -27.01904297 26.79199219 C-26.41857147 26.19167175 -25.81809998 25.59135132 -25.19943237 24.97283936 C-24.55354156 24.33727112 -23.90765076 23.70170288 -23.2421875 23.046875 C-22.24761032 22.05654266 -22.24761032 22.05654266 -21.23294067 21.04620361 C-19.11828168 18.94272176 -16.99676788 16.84630858 -14.875 14.75 C-13.43834443 13.32337739 -12.00214102 11.89629928 -10.56640625 10.46875 C-7.04949196 6.97386339 -3.52641453 3.48529938 0 0 Z " fill="#027E03" transform="translate(625,333)"/>
<path d="M0 0 C6.22263981 2.48905592 9.22886102 6.09799431 13.5 11.0625 C16.12287557 14.0941354 18.80596039 16.56244346 22 19 C25.19981976 22.02685653 28.10475792 25.24899593 31 28.5625 C33.80614502 31.74771151 36.60770406 34.43285712 40 37 C41.68997323 38.64302953 43.35216394 40.31471312 45 42 C46.49863201 43.50136674 47.99875776 45.00124327 49.5 46.5 C50.27988281 47.28117187 51.05976562 48.06234375 51.86328125 48.8671875 C53.4617853 50.46276924 55.0717795 52.0468544 56.6875 53.625 C58.56398826 55.55220416 60.2787416 57.50134754 62 59.5625 C64.41739075 62.44332836 67.05289237 64.65964983 70 67 C70 67.66 70 68.32 70 69 C72.475 68.01 72.475 68.01 75 67 C75.66 68.32 76.32 69.64 77 71 C71.79696546 70.90871869 69.02493501 70.51967519 65.3125 66.75 C64.20256948 65.50511515 63.09897828 64.25456397 62 63 C60.8617649 61.85453886 59.72237728 60.71020316 58.57765198 59.57122803 C56.73562314 57.73669964 54.90148982 55.89444936 53.06762695 54.05175781 C49.02232462 49.98866509 44.97397744 45.9286207 40.92456055 41.86962891 C39.17692813 40.11693279 37.43018923 38.3633453 35.68432617 36.60888672 C33.16297558 34.07546319 30.63845923 31.54523287 28.11328125 29.015625 C27.32995926 28.22714172 26.54663727 27.43865845 25.73957825 26.62628174 C24.65286079 25.53945099 24.65286079 25.53945099 23.54418945 24.43066406 C22.90641068 23.79066467 22.2686319 23.15066528 21.61152649 22.49127197 C20.05377813 20.91053482 20.05377813 20.91053482 18 20 C18 19.34 18 18.68 18 18 C17.34 18 16.68 18 16 18 C16 17.34 16 16.68 16 16 C15.34 16 14.68 16 14 16 C14 15.34 14 14.68 14 14 C13.34 14 12.68 14 12 14 C10.4140625 12.35546875 10.4140625 12.35546875 8.625 10.1875 C6.27280929 7.3431108 3.97921072 5.16975168 1 3 C-1.77912769 5.72082744 -4.54676419 8.45306597 -7.3125 11.1875 C-8.09818359 11.95642578 -8.88386719 12.72535156 -9.69335938 13.51757812 C-10.8293457 14.64389648 -10.8293457 14.64389648 -11.98828125 15.79296875 C-12.68477783 16.4789917 -13.38127441 17.16501465 -14.09887695 17.87182617 C-16.0916885 20.10263884 -17.46990216 22.43968883 -19 25 C-19.66 25.33 -20.32 25.66 -21 26 C-19.515 26.495 -19.515 26.495 -18 27 C-17.67 26.34 -17.34 25.68 -17 25 C-15.35 25 -13.7 25 -12 25 C-12 24.34 -12 23.68 -12 23 C-11.34 23 -10.68 23 -10 23 C-10 22.34 -10 21.68 -10 21 C-8.125 18.875 -8.125 18.875 -6 17 C-5.34 17 -4.68 17 -4 17 C-4 16.34 -4 15.68 -4 15 C-2.03852126 13.61061923 -0.03833424 12.2739589 2 11 C14.33333333 23.33333333 26.66666667 35.66666667 39 48 C38.67 48.66 38.34 49.32 38 50 C34.03687413 47.05596364 31.11477491 43.81559926 28 40 C25.14106513 36.98652811 22.13288516 34.22143683 19 31.5 C14.01576469 27.16912887 9.60240576 22.64572479 5.52734375 17.453125 C3.6404894 15.65795923 2.58950122 15.2480211 0 15 C-2.00376349 16.25979082 -2.00376349 16.25979082 -3.85980225 18.25852966 C-4.9913398 19.37975723 -4.9913398 19.37975723 -6.14573669 20.52363586 C-6.96357132 21.35944687 -7.78140594 22.19525787 -8.62402344 23.05639648 C-9.49267532 23.92431824 -10.36132721 24.79223999 -11.25630188 25.6864624 C-13.6391997 28.07225185 -16.01044769 30.46861575 -18.37726498 32.87029529 C-20.85205577 35.37629158 -23.340964 37.86818395 -25.82843018 40.36158752 C-30.53807866 45.08679155 -35.23483468 49.82459919 -39.92712712 54.56703192 C-45.2691313 59.96487636 -50.62529926 65.34857064 -55.98272276 70.73110473 C-67.00435344 81.80503231 -78.00800069 92.89665498 -89 104 C-88.04162906 105.12390359 -87.08243549 106.24710574 -86.12289429 107.37001038 C-85.58883154 107.99556855 -85.05476879 108.62112673 -84.50452232 109.26564121 C-82.85464832 111.16755614 -81.14023287 112.97429763 -79.3515625 114.74609375 C-78.73925781 115.35517578 -78.12695312 115.96425781 -77.49609375 116.59179688 C-76.87863281 117.20087891 -76.26117187 117.80996094 -75.625 118.4375 C-74.98433594 119.07365234 -74.34367188 119.70980469 -73.68359375 120.36523438 C-72.12468978 121.91250473 -70.56303148 123.45690292 -69 125 C-64.25809265 121.04145382 -59.77503166 116.9163086 -55.42211914 112.53564453 C-54.80662201 111.92029343 -54.19112488 111.30494232 -53.55697632 110.67094421 C-51.54732002 108.6605979 -49.54121726 106.64674589 -47.53515625 104.6328125 C-46.13290456 103.22869339 -44.73043019 101.82479664 -43.32774353 100.42111206 C-39.65458732 96.74415621 -35.98444546 93.06420609 -32.31494141 89.38360596 C-28.56270233 85.62109763 -24.80759507 81.86145421 -21.05273438 78.1015625 C-13.69902664 70.73716251 -6.34850292 63.36959333 1 56 C5.74190735 59.95854618 10.22496834 64.0836914 14.57788086 68.46435547 C15.19337799 69.07970657 15.80887512 69.69505768 16.44302368 70.32905579 C18.45267998 72.3394021 20.45878274 74.35325411 22.46484375 76.3671875 C23.86709544 77.77130661 25.26956981 79.17520336 26.67225647 80.57888794 C30.34541268 84.25584379 34.01555454 87.93579391 37.68505859 91.61639404 C41.43729767 95.37890237 45.19240493 99.13854579 48.94726562 102.8984375 C56.30097336 110.26283749 63.65149708 117.63040667 71 125 C72.1257744 124.03966763 73.25089924 123.07857377 74.37574768 122.11715698 C75.00237084 121.58202925 75.62899401 121.04690151 76.27460575 120.49555779 C78.0960176 118.91677272 79.83175527 117.28338127 81.52734375 115.5703125 C82.09130859 115.003125 82.65527344 114.4359375 83.23632812 113.8515625 C83.79771484 113.28179687 84.35910156 112.71203125 84.9375 112.125 C85.52595703 111.53203125 86.11441406 110.9390625 86.72070312 110.328125 C88.14947674 108.88773534 89.57508132 107.4442033 91 106 C90.53980469 105.07960938 90.53980469 105.07960938 90.0703125 104.140625 C89.046875 102.09375 88.0234375 100.046875 87 98 C89.62901288 99.52206009 91.84365964 100.84365964 94 103 C93.65116719 108.9805625 87.18395375 113.37030473 83.25 117.3125 C82.3425 118.25673828 81.435 119.20097656 80.5 120.17382812 C79.61828125 121.06134766 78.7365625 121.94886719 77.828125 122.86328125 C77.0227832 123.68094971 76.21744141 124.49861816 75.38769531 125.34106445 C73 127 73 127 70.76490784 126.98944092 C66.70807043 125.53767429 64.34841008 122.87390758 61.3737793 119.82788086 C60.72931351 119.18399918 60.08484772 118.54011749 59.42085266 117.87672424 C57.29568793 115.7487756 55.18503725 113.60701602 53.07421875 111.46484375 C51.60250271 109.98566647 50.12990031 108.50737059 48.65644836 107.02992249 C44.78258736 103.14079619 40.92088887 99.2398072 37.06158447 95.33624268 C33.1205847 91.35431008 29.16822331 87.3836906 25.21679688 83.41210938 C17.46669005 75.61911579 9.72938252 67.81354535 2 60 C-2.15779668 62.39744273 -5.42493725 65.14674572 -8.78125 68.55078125 C-9.31721802 69.08720749 -9.85318604 69.62363373 -10.40539551 70.17631531 C-11.5338735 71.30780244 -12.65993217 72.44170707 -13.78369141 73.57788086 C-15.48943366 75.30182093 -17.20298297 77.01768215 -18.91796875 78.73242188 C-20.01870069 79.83807244 -21.11897613 80.9441777 -22.21875 82.05078125 C-22.72410278 82.55724686 -23.22945557 83.06371246 -23.75012207 83.58552551 C-27.03435986 86.91305429 -30.02629673 90.3927364 -33 94 C-34.11274524 95.01661174 -35.25422131 96.00393 -36.4375 96.9375 C-38.87145791 98.95181 -40.93243236 100.9965481 -42.9375 103.4375 C-45.60045291 106.65406681 -48.53397554 109.27017227 -51.7109375 111.96875 C-56.35221449 116.08728931 -60.64581264 120.58250459 -65 125 C-65.99892991 126.00106895 -66.99833749 127.00166528 -68 128 C-72.17648975 125.91175513 -74.63188498 123.28826674 -77.5390625 119.75390625 C-79.54624884 117.34420928 -81.7564306 115.19015109 -84 113 C-85.43884409 111.56384534 -86.87626263 110.12626152 -88.3125 108.6875 C-89.00988281 107.99011719 -89.70726562 107.29273438 -90.42578125 106.57421875 C-90.94527344 106.05472656 -91.46476563 105.53523438 -92 105 C-86.50389405 98.28886544 -80.35240052 92.27279227 -74.1875 86.1875 C-72.09478727 84.1213614 -70.0054071 82.05193435 -67.91796875 79.98046875 C-66.99781982 79.07192139 -66.0776709 78.16337402 -65.12963867 77.22729492 C-62.97213639 75.19001439 -62.97213639 75.19001439 -62 73 C-61.34 73 -60.68 73 -60 73 C-59.7525 72.4225 -59.505 71.845 -59.25 71.25 C-57.81700012 68.67060021 -56.21575324 66.93878408 -54 65 C-53.34 65 -52.68 65 -52 65 C-51.34 63.68 -50.68 62.36 -50 61 C-49.34 61 -48.68 61 -48 61 C-47.34 59.68 -46.68 58.36 -46 57 C-45.34 57 -44.68 57 -44 57 C-43.7525 56.4225 -43.505 55.845 -43.25 55.25 C-41.81700012 52.67060021 -40.21575324 50.93878408 -38 49 C-37.34 49 -36.68 49 -36 49 C-35.731875 48.401875 -35.46375 47.80375 -35.1875 47.1875 C-34.00691239 45.01273336 -32.73183488 43.73183488 -31 42 C-30.67 41.01 -30.34 40.02 -30 39 C-29.34 39 -28.68 39 -28 39 C-28.33 38.01 -28.66 37.02 -29 36 C-30.32 36 -31.64 36 -33 36 C-33.66 37.32 -34.32 38.64 -35 40 C-35.66 40 -36.32 40 -37 40 C-37 40.66 -37 41.32 -37 42 C-37.66 42 -38.32 42 -39 42 C-39 42.66 -39 43.32 -39 44 C-40.44018555 45.41674805 -40.44018555 45.41674805 -42.44921875 47.07421875 C-47.16128004 51.08035325 -51.47995839 55.40347928 -55.8125 59.8125 C-57.29582138 61.32132992 -58.78140176 62.82794327 -60.26953125 64.33203125 C-60.91510986 64.98921143 -61.56068848 65.6463916 -62.22583008 66.32348633 C-64 68 -64 68 -67 70 C-67.886875 69.896875 -68.77375 69.79375 -69.6875 69.6875 C-74.22597368 70.11565789 -76.0143123 72.33375424 -79.16796875 75.46875 C-81 77 -81 77 -84 77 C-80 73 -76 69 -72 65 C-70.68 65.99 -69.36 66.98 -68 68 C-45.56 45.56 -23.12 23.12 0 0 Z " fill="#F2FEF2" transform="translate(625,376)"/>
<path d="M0 0 C4.72181851 4.04727301 9.21202951 8.07067008 13.57788086 12.46435547 C14.19337799 13.07970657 14.80887512 13.69505768 15.44302368 14.32905579 C17.45267998 16.3394021 19.45878274 18.35325411 21.46484375 20.3671875 C22.86709544 21.77130661 24.26956981 23.17520336 25.67225647 24.57888794 C29.34541268 28.25584379 33.01555454 31.93579391 36.68505859 35.61639404 C40.43729767 39.37890237 44.19240493 43.13854579 47.94726562 46.8984375 C55.30097336 54.26283749 62.65149708 61.63040667 70 69 C71.1257744 68.03966763 72.25089924 67.07857377 73.37574768 66.11715698 C74.00237084 65.58202925 74.62899401 65.04690151 75.27460575 64.49555779 C77.0960176 62.91677272 78.83175527 61.28338127 80.52734375 59.5703125 C81.09130859 59.003125 81.65527344 58.4359375 82.23632812 57.8515625 C82.79771484 57.28179687 83.35910156 56.71203125 83.9375 56.125 C84.52595703 55.53203125 85.11441406 54.9390625 85.72070312 54.328125 C87.14947674 52.88773534 88.57508132 51.4442033 90 50 C89.69320312 49.38640625 89.38640625 48.7728125 89.0703125 48.140625 C88.046875 46.09375 87.0234375 44.046875 86 42 C88.62901288 43.52206009 90.84365964 44.84365964 93 47 C92.65116719 52.9805625 86.18395375 57.37030473 82.25 61.3125 C81.3425 62.25673828 80.435 63.20097656 79.5 64.17382812 C78.61828125 65.06134766 77.7365625 65.94886719 76.828125 66.86328125 C76.0227832 67.68094971 75.21744141 68.49861816 74.38769531 69.34106445 C72 71 72 71 69.76490784 70.98944092 C65.70807043 69.53767429 63.34841008 66.87390758 60.3737793 63.82788086 C59.72931351 63.18399918 59.08484772 62.54011749 58.42085266 61.87672424 C56.29568793 59.7487756 54.18503725 57.60701602 52.07421875 55.46484375 C50.60250271 53.98566647 49.12990031 52.50737059 47.65644836 51.02992249 C43.78258736 47.14079619 39.92088887 43.2398072 36.06158447 39.33624268 C32.1205847 35.35431008 28.16822331 31.3836906 24.21679688 27.41210938 C16.46669005 19.61911579 8.72938252 11.81354535 1 4 C-3.15779668 6.39744273 -6.42493725 9.14674572 -9.78125 12.55078125 C-10.31721802 13.08720749 -10.85318604 13.62363373 -11.40539551 14.17631531 C-12.5338735 15.30780244 -13.65993217 16.44170707 -14.78369141 17.57788086 C-16.48943366 19.30182093 -18.20298297 21.01768215 -19.91796875 22.73242188 C-21.01870069 23.83807244 -22.11897613 24.9441777 -23.21875 26.05078125 C-23.72410278 26.55724686 -24.22945557 27.06371246 -24.75012207 27.58552551 C-28.03435986 30.91305429 -31.02629673 34.3927364 -34 38 C-35.11274524 39.01661174 -36.25422131 40.00393 -37.4375 40.9375 C-39.87145791 42.95181 -41.93243236 44.9965481 -43.9375 47.4375 C-46.59694313 50.64982736 -49.52502194 53.26358658 -52.69921875 55.95703125 C-57.34384898 60.08121055 -61.64562898 64.57358976 -66 69 C-66.66 68.67 -67.32 68.34 -68 68 C-45.56 45.56 -23.12 23.12 0 0 Z " fill="#D0F0D0" transform="translate(626,432)"/>
<path d="M0 0 C6.22263981 2.48905592 9.22886102 6.09799431 13.5 11.0625 C16.12287557 14.0941354 18.80596039 16.56244346 22 19 C25.19981976 22.02685653 28.10475792 25.24899593 31 28.5625 C33.80614502 31.74771151 36.60770406 34.43285712 40 37 C41.68997323 38.64302953 43.35216394 40.31471312 45 42 C46.49863201 43.50136674 47.99875776 45.00124327 49.5 46.5 C50.27988281 47.28117187 51.05976562 48.06234375 51.86328125 48.8671875 C53.4617853 50.46276924 55.0717795 52.0468544 56.6875 53.625 C58.56398826 55.55220416 60.2787416 57.50134754 62 59.5625 C64.41739075 62.44332836 67.05289237 64.65964983 70 67 C70 67.66 70 68.32 70 69 C71.65 68.34 73.3 67.68 75 67 C75.66 68.32 76.32 69.64 77 71 C71.79696546 70.90871869 69.02493501 70.51967519 65.3125 66.75 C64.20256948 65.50511515 63.09897828 64.25456397 62 63 C60.8617649 61.85453886 59.72237728 60.71020316 58.57765198 59.57122803 C56.73562314 57.73669964 54.90148982 55.89444936 53.06762695 54.05175781 C49.02232462 49.98866509 44.97397744 45.9286207 40.92456055 41.86962891 C39.17692813 40.11693279 37.43018923 38.3633453 35.68432617 36.60888672 C33.16297558 34.07546319 30.63845923 31.54523287 28.11328125 29.015625 C27.32995926 28.22714172 26.54663727 27.43865845 25.73957825 26.62628174 C25.01509995 25.90172791 24.29062164 25.17717407 23.54418945 24.43066406 C22.90641068 23.79066467 22.2686319 23.15066528 21.61152649 22.49127197 C20.05377813 20.91053482 20.05377813 20.91053482 18 20 C18 19.34 18 18.68 18 18 C17.34 18 16.68 18 16 18 C16 17.34 16 16.68 16 16 C15.34 16 14.68 16 14 16 C14 15.34 14 14.68 14 14 C13.34 14 12.68 14 12 14 C10.4140625 12.35546875 10.4140625 12.35546875 8.625 10.1875 C6.27280929 7.3431108 3.97921072 5.16975168 1 3 C-1.69181275 5.662342 -4.37762147 8.33066667 -7.0625 11 C-7.81466797 11.74378906 -8.56683594 12.48757813 -9.34179688 13.25390625 C-14.10818371 17.99965938 -18.64681013 22.87223051 -23 28 C-24.32 27.67 -25.64 27.34 -27 27 C-18.09 18.09 -9.18 9.18 0 0 Z " fill="#D2EFD1" transform="translate(625,376)"/>
<path d="M0 0 C0.495 0.99 0.495 0.99 1 2 C-0.2739589 4.03833424 -1.61061923 6.03852126 -3 8 C-3.66 8 -4.32 8 -5 8 C-5.66 9.32 -6.32 10.64 -7 12 C-7.66 12 -8.32 12 -9 12 C-9 12.66 -9 13.32 -9 14 C-9.66 14 -10.32 14 -11 14 C-11 14.66 -11 15.32 -11 16 C-12.44018555 17.41674805 -12.44018555 17.41674805 -14.44921875 19.07421875 C-19.16128004 23.08035325 -23.47995839 27.40347928 -27.8125 31.8125 C-29.29582138 33.32132992 -30.78140176 34.82794327 -32.26953125 36.33203125 C-32.91510986 36.98921143 -33.56068848 37.6463916 -34.22583008 38.32348633 C-36 40 -36 40 -39 42 C-39.886875 41.896875 -40.77375 41.79375 -41.6875 41.6875 C-46.22597368 42.11565789 -48.0143123 44.33375424 -51.16796875 47.46875 C-53 49 -53 49 -56 49 C-52 45 -48 41 -44 37 C-42.68 37.99 -41.36 38.98 -40 40 C-26.8 26.8 -13.6 13.6 0 0 Z " fill="#E0F8E0" transform="translate(597,404)"/>
<path d="M0 0 C0.99 0.33 1.98 0.66 3 1 C2.31973755 1.57415649 2.31973755 1.57415649 1.62573242 2.15991211 C-4.42597023 7.35279975 -10.06282008 12.91396984 -15.6875 18.5625 C-16.61111328 19.48224609 -17.53472656 20.40199219 -18.48632812 21.34960938 C-23.89528283 26.73726135 -23.89528283 26.73726135 -28.9296875 32.46875 C-30.67331754 34.60058446 -32.29051808 36.2435982 -34.4375 37.9375 C-36.87145791 39.95181 -38.93243236 41.9965481 -40.9375 44.4375 C-43.59694313 47.64982736 -46.52502194 50.26358658 -49.69921875 52.95703125 C-54.34384898 57.08121055 -58.64562898 61.57358976 -63 66 C-63.66 65.67 -64.32 65.34 -65 65 C-43.55 43.55 -22.1 22.1 0 0 Z " fill="#DDFDDD" transform="translate(623,435)"/>
<path d="M0 0 C4.69810038 3.92265801 9.14292181 8.00425168 13.44921875 12.3515625 C14.02912064 12.93287933 14.60902252 13.51419617 15.20649719 14.11312866 C17.03589012 15.94805489 18.86175731 17.78644253 20.6875 19.625 C21.92229153 20.86481694 23.15731573 22.1044022 24.39257812 23.34375 C26.65598161 25.61527166 28.91805853 27.8880955 31.1784668 30.16259766 C33.44798673 32.44607411 35.72194587 34.7250322 38 37 C37.505 37.99 37.505 37.99 37 39 C33.03687413 36.05596364 30.11477491 32.81559926 27 29 C24.14106513 25.98652811 21.13288516 23.22143683 18 20.5 C13.01576469 16.16912887 8.60240576 11.64572479 4.52734375 6.453125 C2.70510115 4.71943127 1.47990224 4.29938458 -1 4 C-1.99 4.495 -1.99 4.495 -3 5 C-1.125 1.125 -1.125 1.125 0 0 Z " fill="#DCF4DE" transform="translate(626,387)"/>
<path d="M0 0 C0.33 0.99 0.66 1.98 1 3 C-0.76776959 4.79478135 -2.53902559 6.5858707 -4.3125 8.375 C-5.06176758 9.13683594 -5.06176758 9.13683594 -5.82617188 9.9140625 C-8.12542387 12.22854133 -10.27521225 14.18347483 -13 16 C-14.3303125 15.8453125 -14.3303125 15.8453125 -15.6875 15.6875 C-20.22597368 16.11565789 -22.0143123 18.33375424 -25.16796875 21.46875 C-27 23 -27 23 -30 23 C-26 19 -22 15 -18 11 C-16.68 11.99 -15.36 12.98 -14 14 C-9.38 9.38 -4.76 4.76 0 0 Z " fill="#DAF6D9" transform="translate(571,430)"/>
<path d="M0 0 C0.99 0.33 1.98 0.66 3 1 C2.14277344 1.845625 1.28554688 2.69125 0.40234375 3.5625 C-5.61869911 9.52724677 -11.5779837 15.47386402 -17 22 C-18.32 21.67 -19.64 21.34 -21 21 C-14.07 14.07 -7.14 7.14 0 0 Z " fill="#DFF7DE" transform="translate(619,382)"/>
<path d="M0 0 C3.54773187 1.31397477 5.27086214 3.43187801 7.578125 6.3515625 C9.61547254 8.71354234 11.961223 10.62349823 14.3515625 12.6171875 C16.3659249 14.30696069 18.2480491 16.03781499 20 18 C20 18.66 20 19.32 20 20 C17.75 19.875 17.75 19.875 15 19 C13.6273318 17.02678947 12.29572383 15.02456848 11 13 C9.36368108 11.95107762 7.69514137 10.95093297 6 10 C2.36984145 6.86486307 0.41681873 4.8628852 0 0 Z " fill="#A5D4A8" transform="translate(664,426)"/>
<path d="M0 0 C2.62901288 1.52206009 4.84365964 2.84365964 7 5 C6.65796425 10.98762814 0.13238246 15.37858316 -3.8125 19.3125 C-4.72837891 20.25673828 -5.64425781 21.20097656 -6.58789062 22.17382812 C-7.91530273 23.50510742 -7.91530273 23.50510742 -9.26953125 24.86328125 C-10.48539917 26.08978394 -10.48539917 26.08978394 -11.72583008 27.34106445 C-14 29 -14 29 -16.2956543 28.75854492 C-16.85808838 28.5082251 -17.42052246 28.25790527 -18 28 C-17.26177002 27.5877417 -16.52354004 27.1754834 -15.76293945 26.75073242 C-13.05254365 25.03329421 -11.03846459 23.26805947 -8.79296875 20.98828125 C-8.04208984 20.23095703 -7.29121094 19.47363281 -6.51757812 18.69335938 C-5.74865234 17.90767578 -4.97972656 17.12199219 -4.1875 16.3125 C-3.00510742 15.11657227 -3.00510742 15.11657227 -1.79882812 13.89648438 C0.13872585 11.9354449 2.07144276 9.96988119 4 8 C3.69320312 7.38640625 3.38640625 6.7728125 3.0703125 6.140625 C2.046875 4.09375 1.0234375 2.046875 0 0 Z " fill="#E4F9E4" transform="translate(712,474)"/>
<path d="M0 0 C0.33 0.99 0.66 1.98 1 3 C-3.1805561 9.67077905 -10.12206713 14.89081087 -16 20 C-16.66 19.67 -17.32 19.34 -18 19 C-17.49025635 18.49549316 -16.9805127 17.99098633 -16.45532227 17.47119141 C-14.15511905 15.19172966 -11.85877123 12.90842239 -9.5625 10.625 C-8.76005859 9.8309375 -7.95761719 9.036875 -7.13085938 8.21875 C-6.36708984 7.45820313 -5.60332031 6.69765625 -4.81640625 5.9140625 C-4.10943604 5.2123291 -3.40246582 4.5105957 -2.67407227 3.78759766 C-0.92780016 2.09306909 -0.92780016 2.09306909 0 0 Z " fill="#000D00" transform="translate(717,423)"/>
<path d="M0 0 C1.65 1.32 3.3 2.64 5 4 C3.34136495 8.32504836 0.128959 11.09418825 -3.125 14.25 C-3.68832031 14.80429687 -4.25164063 15.35859375 -4.83203125 15.9296875 C-6.21686028 17.29104485 -7.60783204 18.64614859 -9 20 C-9 16.06830895 -7.60580385 14.83572772 -5 12 C-4.34 12 -3.68 12 -3 12 C-3 10.68 -3 9.36 -3 8 C-1.35 7.34 0.3 6.68 2 6 C1.34 4.02 0.68 2.04 0 0 Z " fill="#0F7110" transform="translate(712,419)"/>
<path d="M0 0 C4.15952939 2.24206938 7.30729424 5.06490818 10.5625 8.4375 C11.03107422 8.91509766 11.49964844 9.39269531 11.98242188 9.88476562 C13.32478264 11.25341038 14.662492 12.6266125 16 14 C17.33110926 15.3355537 18.66352573 16.66981502 20 18 C19.67 18.66 19.34 19.32 19 20 C18.360625 19.34 17.72125 18.68 17.0625 18 C14.63039294 15.56096386 12.08364799 13.27740591 9.5 11 C2.80386179 5.07520325 2.80386179 5.07520325 0 2 C0 1.34 0 0.68 0 0 Z " fill="#E5F8E5" transform="translate(692,454)"/>
<path d="M0 0 C4.6891718 1.24125136 6.67282462 3.71088266 9.47265625 7.44140625 C11.26170554 9.26706013 12.50968708 9.60904765 15 10 C15.33 11.98 15.66 13.96 16 16 C10.35573231 11.31645873 4.9941954 6.3792354 0 1 C0 0.67 0 0.34 0 0 Z " fill="#0F760E" transform="translate(636,441)"/>
<path d="M0 0 C0.66 0.33 1.32 0.66 2 1 C0.07794768 4.65189941 -1.22037054 6.36216057 -5 8 C-5.33 8.66 -5.66 9.32 -6 10 C-6.66 10 -7.32 10 -8 10 C-8.226875 10.61875 -8.45375 11.2375 -8.6875 11.875 C-10.37929835 14.61410209 -11.99244161 15.05024472 -15 16 C-10.30233025 10.33870569 -5.25276628 5.14771096 0 0 Z " fill="#0B670C" transform="translate(575,383)"/>
<path d="M0 0 C4.16116938 2.08058469 6.6170897 4.68756282 9.5078125 8.21484375 C11.531694 10.63608418 13.73667154 12.80324003 16 15 C12.86915901 14.42235562 11.22256994 13.59969956 8.984375 11.34765625 C8.45585938 10.81849609 7.92734375 10.28933594 7.3828125 9.74414062 C6.84398437 9.18919922 6.30515625 8.63425781 5.75 8.0625 C5.19570313 7.51142578 4.64140625 6.96035156 4.0703125 6.39257812 C0 2.26712592 0 2.26712592 0 0 Z " fill="#D8F2D9" transform="translate(649,399)"/>
<path d="M0 0 C3.95677402 1.67401978 6.84464213 4.13149285 10 7 C10 7.66 10 8.32 10 9 C11.65 8.34 13.3 7.68 15 7 C15.66 8.32 16.32 9.64 17 11 C11.60100387 10.90528077 8.94886651 10.43656994 5.125 6.5 C4.57070313 5.8709375 4.01640625 5.241875 3.4453125 4.59375 C2.07037383 2.88429826 2.07037383 2.88429826 0 2 C0 1.34 0 0.68 0 0 Z " fill="#E3F6E3" transform="translate(685,436)"/>
<path d="M0 0 C1.98 1.32 3.96 2.64 6 4 C5.443125 4.12375 4.88625 4.2475 4.3125 4.375 C-1.78016679 6.0216667 -4.7269824 8.4288649 -9 13 C-9.66 12.67 -10.32 12.34 -11 12 C-10.37351562 11.38511719 -9.74703125 10.77023437 -9.1015625 10.13671875 C-8.28429687 9.32847656 -7.46703125 8.52023437 -6.625 7.6875 C-5.40683594 6.48673828 -5.40683594 6.48673828 -4.1640625 5.26171875 C-1.87395158 2.99990063 -1.87395158 2.99990063 0 0 Z " fill="#F4FAF4" transform="translate(552,441)"/>
<path d="M0 0 C0.25 2.25 0.25 2.25 0 5 C-2 7.3125 -2 7.3125 -4 9 C-3.34 9.66 -2.68 10.32 -2 11 C-2.99 11 -3.98 11 -5 11 C-6.6875 9 -6.6875 9 -8 7 C-6.8572081 5.83035398 -5.71068285 4.66435444 -4.5625 3.5 C-3.92441406 2.8503125 -3.28632812 2.200625 -2.62890625 1.53125 C-1 0 -1 0 0 0 Z " fill="#197B1A" transform="translate(543,473)"/>
<path d="M0 0 C3.35915158 1.43963639 5.71624938 3.12416589 8 6 C7.75 8.25 7.75 8.25 7 10 C2.57320993 8.52440331 2.08567304 6.09942632 0 2 C0 1.34 0 0.68 0 0 Z " fill="#74B375" transform="translate(664,426)"/>
<path d="M0 0 C4.3324009 0.48137788 6.18630216 1.70118184 9 5 C9.99 6.485 9.99 6.485 11 8 C10.67 8.99 10.34 9.98 10 11 C8.33035479 9.35718838 6.6643536 7.71067239 5 6.0625 C4.071875 5.14597656 3.14375 4.22945313 2.1875 3.28515625 C0 1 0 1 0 0 Z " fill="#0D760D" transform="translate(683,488)"/>
<path d="M0 0 C4.84395662 2.04936626 9.04201437 5.04048394 11.375 9.8125 C11.58125 10.534375 11.7875 11.25625 12 12 C9.96166576 10.7260411 7.96147874 9.38938077 6 8 C6 7.34 6 6.68 6 6 C5.34 6 4.68 6 4 6 C4 5.34 4 4.68 4 4 C3.34 4 2.68 4 2 4 C2 3.34 2 2.68 2 2 C1.34 2 0.68 2 0 2 C0 1.34 0 0.68 0 0 Z " fill="#E2F6E3" transform="translate(637,388)"/>
<path d="M0 0 C4 2 4 2 5 4 C2.525 3.01 2.525 3.01 0 2 C-0.061875 2.598125 -0.12375 3.19625 -0.1875 3.8125 C-1.34270543 6.92266847 -3.06877187 7.60417708 -6 9 C-6.99 9 -7.98 9 -9 9 C-6.03 6.03 -3.06 3.06 0 0 Z " fill="#0D680F" transform="translate(625,333)"/>
<path d="M0 0 C0.33 0.99 0.66 1.98 1 3 C-3.455 6.96 -3.455 6.96 -8 11 C-8.66 10.67 -9.32 10.34 -10 10 C-6.7 6.7 -3.4 3.4 0 0 Z " fill="#1E7E1F" transform="translate(589,426)"/>
<path d="M0 0 C1.67299959 0.65061095 3.33859237 1.32033324 5 2 C5.7425 2.2475 6.485 2.495 7.25 2.75 C9 4 9 4 9.75 7.125 C9.87375 8.548125 9.87375 8.548125 10 10 C2.51708428 3.84965831 2.51708428 3.84965831 0 0 Z " fill="#10760D" transform="translate(652,457)"/>
<path d="M0 0 C7.48291572 6.15034169 7.48291572 6.15034169 10 10 C7.8125 9.9375 7.8125 9.9375 5 9 C2.61372642 6.43314355 0 3.61081552 0 0 Z " fill="#328A33" transform="translate(648,411)"/>
<path d="M0 0 C0.66 0.33 1.32 0.66 2 1 C0.52861945 4.87909417 -1.45361125 6.01056241 -5 8 C-6.75149165 9.58245275 -6.75149165 9.58245275 -8 11 C-8.66 10.67 -9.32 10.34 -10 10 C-6.7 6.7 -3.4 3.4 0 0 Z " fill="#0C660D" transform="translate(591,367)"/>
<path d="M0 0 C0.33 0.66 0.66 1.32 1 2 C0.08189308 4.67085649 -0.55583997 5.75773089 -3.0625 7.125 C-3.701875 7.41375 -4.34125 7.7025 -5 8 C-5.33 8.66 -5.66 9.32 -6 10 C-6.99 9.67 -7.98 9.34 -9 9 C-6.03 6.03 -3.06 3.06 0 0 Z " fill="#0C670D" transform="translate(607,351)"/>
<path d="M0 0 C2.6875 -0.3125 2.6875 -0.3125 6 0 C8.875 2.5 8.875 2.5 11 5 C10.67 5.99 10.34 6.98 10 8 C9.61328125 7.55527344 9.2265625 7.11054688 8.828125 6.65234375 C8.30734375 6.08644531 7.7865625 5.52054687 7.25 4.9375 C6.73953125 4.36902344 6.2290625 3.80054688 5.703125 3.21484375 C4.04312742 1.73501743 4.04312742 1.73501743 1.796875 2.31640625 C1.20390625 2.54199219 0.6109375 2.76757812 0 3 C0 2.01 0 1.02 0 0 Z " fill="#001A00" transform="translate(623,332)"/>
<path d="M0 0 C0 3.66666667 0 7.33333333 0 11 C-1.65 9.02 -3.3 7.04 -5 5 C-3.35 3.35 -1.7 1.7 0 0 Z " fill="#106A0F" transform="translate(540,418)"/>
<path d="M0 0 C0.99 0.33 1.98 0.66 3 1 C0.36 3.64 -2.28 6.28 -5 9 C-5.33 7.68 -5.66 6.36 -6 5 C-5.38125 4.731875 -4.7625 4.46375 -4.125 4.1875 C-1.7004767 3.04443152 -1.7004767 3.04443152 0 0 Z " fill="#117311" transform="translate(595,460)"/>
<path d="M0 0 C1.65 0 3.3 0 5 0 C5 1.32 5 2.64 5 4 C5.66 4 6.32 4 7 4 C7.33 5.32 7.66 6.64 8 8 C6.85073734 7.04578192 5.70569459 6.08647955 4.5625 5.125 C3.92441406 4.59132813 3.28632812 4.05765625 2.62890625 3.5078125 C1 2 1 2 0 0 Z " fill="#0E770C" transform="translate(662,467)"/>
<path d="M0 0 C3.53372712 1.96318174 6.24479785 4.04070881 9 7 C8.67 7.99 8.34 8.98 8 10 C7.59007812 9.50628906 7.18015625 9.01257813 6.7578125 8.50390625 C6.21898437 7.86324219 5.68015625 7.22257812 5.125 6.5625 C4.59132813 5.92441406 4.05765625 5.28632813 3.5078125 4.62890625 C2.0777243 2.89194996 2.0777243 2.89194996 0 2 C0 1.34 0 0.68 0 0 Z " fill="#D6EFD6" transform="translate(692,454)"/>
<path d="M0 0 C0.33 0.66 0.66 1.32 1 2 C-1.65654657 5.73884332 -3.58110387 7.64978174 -8 9 C-7.04270084 7.87411986 -6.08412105 6.7493285 -5.125 5.625 C-4.59132813 4.99851562 -4.05765625 4.37203125 -3.5078125 3.7265625 C-2.38567993 2.44163349 -1.20628025 1.20628025 0 0 Z " fill="#207F20" transform="translate(604,411)"/>
<path d="M0 0 C0.33 0.66 0.66 1.32 1 2 C-0.98 4.97 -0.98 4.97 -3 8 C-4.32 7.67 -5.64 7.34 -7 7 C-4.69 4.69 -2.38 2.38 0 0 Z " fill="#D8F6D8" transform="translate(597,404)"/>
<path d="M0 0 C0.33 0.66 0.66 1.32 1 2 C-1.65654657 5.73884332 -3.58110387 7.64978174 -8 9 C-7.04270084 7.87411986 -6.08412105 6.7493285 -5.125 5.625 C-4.59132813 4.99851562 -4.05765625 4.37203125 -3.5078125 3.7265625 C-2.38567993 2.44163349 -1.20628025 1.20628025 0 0 Z " fill="#217C22" transform="translate(615,400)"/>
<path d="M0 0 C3.94139078 1.66751148 6.7892812 4.22710649 10 7 C9.01 7.33 8.02 7.66 7 8 C5.83035398 6.8572081 4.66435444 5.71068285 3.5 4.5625 C2.8503125 3.92441406 2.200625 3.28632813 1.53125 2.62890625 C0 1 0 1 0 0 Z " fill="#D7F2D7" transform="translate(677,428)"/>
<path d="M0 0 C3.37503669 1.1858237 5.64722731 2.27573689 8 5 C7.67 5.99 7.34 6.98 7 8 C5.83035398 6.8572081 4.66435444 5.71068285 3.5 4.5625 C2.8503125 3.92441406 2.200625 3.28632813 1.53125 2.62890625 C0 1 0 1 0 0 Z " fill="#001E00" transform="translate(658,364)"/>
<path d="M0 0 C3.53600465 1.91135386 5.78972846 3.62642766 8 7 C4.21388773 6.45912682 2.44599233 4.88277668 0 2 C0 1.34 0 0.68 0 0 Z " fill="#C9EAC7" transform="translate(649,399)"/>
<path d="M0 0 C0.33 0.99 0.66 1.98 1 3 C-1.31 5.31 -3.62 7.62 -6 10 C-6 6.41087588 -5.33563446 5.89142971 -3 3.3125 C-2.443125 2.68988281 -1.88625 2.06726563 -1.3125 1.42578125 C-0.879375 0.95527344 -0.44625 0.48476563 0 0 Z " fill="#A2A2A2" transform="translate(508,384)"/>
<path d="M0 0 C1 2 1 2 0.4375 4 C-1.57302108 6.79724672 -3.74418077 7.15065585 -7 8 C-6.02133662 6.85373678 -5.04205413 5.70800212 -4.0625 4.5625 C-3.51722656 3.92441406 -2.97195313 3.28632813 -2.41015625 2.62890625 C-1.63204305 1.73008851 -0.84063472 0.84063472 0 0 Z " fill="#0C670B" transform="translate(615,343)"/>
<path d="M0 0 C2.0625 0.4375 2.0625 0.4375 4 1 C1.03 3.475 1.03 3.475 -2 6 C-1.125 1.125 -1.125 1.125 0 0 Z " fill="#1D7E1E" transform="translate(702,492)"/>
<path d="M0 0 C0.66 0.33 1.32 0.66 2 1 C-1.5 5.875 -1.5 5.875 -6 7 C-4.02 4.69 -2.04 2.38 0 0 Z " fill="#1D7E1E" transform="translate(625,390)"/>
<path d="M0 0 C2.475 0.99 2.475 0.99 5 2 C5 2.66 5 3.32 5 4 C5.99 4.33 6.98 4.66 8 5 C7.34 5.66 6.68 6.32 6 7 C1.125 2.25 1.125 2.25 0 0 Z " fill="#012201" transform="translate(635,341)"/>
<path d="M0 0 C2.475 0.99 2.475 0.99 5 2 C5 2.66 5 3.32 5 4 C5.99 4.33 6.98 4.66 8 5 C7.34 5.66 6.68 6.32 6 7 C4.02 4.69 2.04 2.38 0 0 Z " fill="#001E00" transform="translate(699,405)"/>
<path d="M0 0 C4.875 4.75 4.875 4.75 6 7 C3.5625 6.3125 3.5625 6.3125 1 5 C0.1875 2.375 0.1875 2.375 0 0 Z " fill="#2A842B" transform="translate(636,399)"/>
<path d="" fill="#FEFFFE" transform="translate(0,0)"/>
<path d="" fill="#FFFCFE" transform="translate(0,0)"/>
</svg>
